<svg width="500" height="263" viewBox="0 0 500 263" fill="none" xmlns="http://www.w3.org/2000/svg">
<rect x="0.5" y="0.5" width="499" height="262" rx="29.5" fill="white" stroke="#DEE2E6"/>
<mask id="mask0" mask-type="alpha" maskUnits="userSpaceOnUse" x="1" y="1" width="498" height="261">
<rect x="1.5" y="1.5" width="497" height="260" rx="28.5" fill="white" stroke="#DEE2E6"/>
</mask>
<g mask="url(#mask0)">
<path fill-rule="evenodd" clip-rule="evenodd" d="M431.221 191.615C433.324 190.085 434.367 187.58 435.152 187.153C435.729 186.84 435.718 184.675 436.876 183.909C438.429 182.88 443.378 182.116 445.179 181.973C446.907 181.836 449.913 182.124 451.534 182.756C454.238 183.811 455.317 185.823 456.508 188.416C456.508 188.416 429.776 192.667 431.221 191.615Z" fill="#F2F2F2"/>
<path fill-rule="evenodd" clip-rule="evenodd" d="M470.446 193.403H427.708L412.915 206.557L406.349 261.845L415.688 264.752L473.392 265.716L491.413 260.623L492.538 222.138L470.446 193.403Z" fill="#03FA71"/>
<path fill-rule="evenodd" clip-rule="evenodd" d="M412.358 251.801C412.656 251.653 412.966 251.483 413.306 251.471C413.89 251.451 413.891 250.543 413.306 250.563C412.796 250.581 412.348 250.793 411.899 251.017C411.376 251.279 411.836 252.062 412.358 251.801ZM413.306 226.243C412.907 226.243 412.506 226.293 412.2 226.572C412.018 226.738 412.032 227.046 412.2 227.214C412.379 227.393 412.661 227.379 412.842 227.214C412.783 227.268 412.842 227.214 412.863 227.202C412.868 227.2 412.871 227.198 412.873 227.197C412.877 227.195 412.882 227.194 412.889 227.193C412.936 227.181 412.983 227.169 413.031 227.16C413.032 227.163 413.133 227.154 413.156 227.153C413.206 227.151 413.256 227.151 413.306 227.151C413.552 227.151 413.76 226.943 413.76 226.697C413.76 226.451 413.551 226.243 413.306 226.243ZM417.577 236.428C417.708 236.998 418.583 236.755 418.453 236.187C418.265 235.359 418.299 234.512 418.453 233.682C418.56 233.11 417.684 232.867 417.577 233.441C417.392 234.436 417.351 235.435 417.577 236.428ZM418.725 203.795C419.401 203.634 420.071 203.615 420.763 203.615C421.348 203.615 421.347 202.707 420.763 202.707C419.991 202.707 419.237 202.74 418.483 202.919C417.914 203.054 418.156 203.93 418.725 203.795ZM420.992 225.912C421.384 225.716 421.777 225.52 422.169 225.324C422.693 225.062 422.232 224.279 421.711 224.539L420.533 225.128C420.01 225.39 420.47 226.173 420.992 225.912ZM421.155 243.793C421.653 244.511 422.353 244.956 423.193 245.179C423.759 245.329 423.999 244.453 423.434 244.303C422.834 244.144 422.3 243.854 421.94 243.335C421.608 242.858 420.821 243.312 421.155 243.793ZM424.294 211.824C424.429 211.572 424.632 211.466 424.883 211.46C425.468 211.447 425.468 210.539 424.883 210.552C424.31 210.565 423.784 210.853 423.51 211.365C423.234 211.881 424.019 212.339 424.294 211.824ZM430.056 217.996C430.219 218.173 430.535 218.169 430.699 217.996C430.799 217.89 430.883 217.772 430.95 217.642C430.975 217.593 430.998 217.543 431.026 217.495C431.039 217.474 431.052 217.453 431.066 217.432C431.071 217.428 431.081 217.418 431.091 217.407C431.266 217.223 431.261 216.951 431.091 216.765C430.928 216.588 430.613 216.592 430.449 216.765C430.349 216.871 430.264 216.989 430.198 217.119C430.173 217.168 430.149 217.218 430.121 217.266C430.109 217.287 430.095 217.308 430.081 217.328C430.076 217.333 430.067 217.343 430.056 217.354C429.882 217.538 429.886 217.81 430.056 217.996ZM430.541 231.404C431.132 231.674 431.781 231.674 432.373 231.404C432.597 231.301 432.65 230.978 432.536 230.782C432.403 230.556 432.137 230.518 431.914 230.62C431.646 230.742 431.267 230.742 430.999 230.62C430.775 230.517 430.512 230.554 430.378 230.782C430.263 230.979 430.318 231.302 430.541 231.404ZM432.155 240.894C432.256 241.135 432.476 241.263 432.732 241.272C432.987 241.282 433.176 241.057 433.187 240.818C433.193 240.664 433.11 240.533 432.991 240.451C432.99 240.443 432.99 240.435 432.99 240.426C432.99 240.172 432.782 239.983 432.536 239.972C432.291 239.961 432.082 240.189 432.082 240.426C432.082 240.586 432.092 240.745 432.155 240.894ZM434.498 255.982C435.223 255.994 435.932 256.167 436.657 256.178C437.243 256.188 437.241 255.28 436.657 255.27C435.932 255.259 435.223 255.086 434.498 255.074C433.912 255.065 433.914 255.973 434.498 255.982ZM437.513 197.794C437.937 198.198 438.462 198.397 438.978 198.65C439.502 198.905 439.962 198.122 439.437 197.865C438.999 197.652 438.514 197.494 438.155 197.152C437.732 196.749 437.089 197.39 437.513 197.794ZM438.652 208.26C438.95 208.111 439.26 207.942 439.6 207.93C440.184 207.909 440.185 207.001 439.6 207.022C439.09 207.039 438.642 207.252 438.194 207.476C437.67 207.737 438.13 208.52 438.652 208.26ZM444.113 250.266C444.248 250.014 444.45 249.908 444.702 249.902C445.287 249.889 445.287 248.981 444.702 248.994C444.128 249.007 443.603 249.295 443.329 249.807C443.053 250.323 443.837 250.781 444.113 250.266ZM446.004 230.548C446.185 230.382 446.172 230.074 446.004 229.906C445.808 229.71 445.612 229.514 445.416 229.318C445.236 229.138 444.955 229.151 444.773 229.318C444.592 229.484 444.605 229.792 444.773 229.96C444.97 230.156 445.166 230.352 445.362 230.548C445.542 230.728 445.823 230.714 446.004 230.548ZM448.234 261.278C448.889 261.263 449.504 261.075 450.121 260.869C450.674 260.685 450.435 259.809 449.879 259.994C449.343 260.172 448.804 260.357 448.234 260.37C447.649 260.383 447.649 261.291 448.234 261.278ZM451.177 241.861C451.77 241.844 452.261 241.543 452.676 241.139C453.096 240.731 452.453 240.09 452.034 240.497C451.796 240.728 451.522 240.943 451.177 240.953C450.593 240.969 450.593 241.877 451.177 241.861ZM449.35 216.89C449.342 217.132 449.24 217.391 449.09 217.55C448.689 217.975 449.33 218.618 449.733 218.192C450.064 217.841 450.244 217.371 450.258 216.89C450.275 216.305 449.366 216.307 449.35 216.89ZM456.279 197.114C456.469 196.742 456.718 196.305 457.097 196.1C457.612 195.821 457.153 195.037 456.639 195.316C456.123 195.595 455.755 196.146 455.494 196.655C455.229 197.175 456.013 197.634 456.279 197.114ZM457.457 206.557C457.667 206.551 457.876 206.515 458.08 206.46C458.167 206.436 458.252 206.409 458.339 206.385C458.377 206.375 458.535 206.355 458.438 206.361C458.684 206.348 458.892 206.163 458.892 205.907C458.892 205.671 458.683 205.44 458.438 205.453C458.101 205.471 457.794 205.639 457.457 205.649C456.872 205.665 456.872 206.573 457.457 206.557ZM460.4 221.071H461.381C461.967 221.071 461.966 220.163 461.381 220.163H460.4C459.814 220.163 459.815 221.071 460.4 221.071ZM461.544 261.216C461.842 261.365 462.193 261.506 462.433 261.733C462.858 262.135 463.502 261.493 463.076 261.091C462.769 260.801 462.376 260.619 462.003 260.432C461.783 260.322 461.512 260.371 461.381 260.595C461.263 260.796 461.325 261.106 461.544 261.216ZM463.737 249.743C463.775 249.732 463.815 249.725 463.853 249.72C464.008 249.699 464.169 249.706 464.324 249.706C464.91 249.706 464.909 248.798 464.324 248.798C463.864 248.798 463.384 248.805 463.022 249.127C462.838 249.291 462.856 249.603 463.022 249.769C463.203 249.95 463.481 249.932 463.664 249.769C463.645 249.786 463.711 249.75 463.737 249.743ZM464.324 234.313C464.192 234.041 464.19 233.864 464.19 233.561C464.19 232.976 463.281 232.977 463.282 233.561C463.282 234 463.347 234.374 463.54 234.771C463.647 234.993 463.962 235.051 464.161 234.934C464.384 234.804 464.431 234.533 464.324 234.313ZM466.951 213.013C467.478 213.192 467.948 213.446 468.412 213.752C468.902 214.075 469.356 213.288 468.871 212.968C468.341 212.618 467.793 212.342 467.192 212.137C466.637 211.948 466.4 212.826 466.951 213.013ZM470.015 197.731C470.406 197.742 470.81 197.892 471.159 198.061C471.684 198.316 472.144 197.532 471.618 197.277C471.119 197.035 470.574 196.838 470.015 196.823C469.429 196.806 469.432 197.714 470.015 197.731ZM471.389 238.526C471.543 238.533 471.674 238.45 471.756 238.33C471.764 238.33 471.773 238.33 471.781 238.33C472.036 238.33 472.224 238.122 472.235 237.876C472.246 237.631 472.019 237.422 471.781 237.422C471.621 237.422 471.462 237.432 471.313 237.495C471.072 237.596 470.944 237.816 470.934 238.072C470.925 238.327 471.15 238.516 471.389 238.526ZM473.623 207.129C474.18 207.311 474.417 206.434 473.864 206.253C473.215 206.041 472.551 205.877 471.902 205.665C471.344 205.483 471.107 206.36 471.66 206.541C472.309 206.753 472.973 206.917 473.623 207.129ZM475.66 224.268C475.833 224.825 476.709 224.586 476.536 224.026C476.368 223.486 476.356 222.943 476.356 222.382C476.356 221.796 475.447 221.798 475.448 222.382C475.448 223.02 475.469 223.653 475.66 224.268ZM481.734 244.795C481.767 245.021 481.946 245.184 482.181 245.195C482.42 245.206 482.644 244.978 482.635 244.741C482.618 244.284 482.246 243.911 481.788 243.895C481.534 243.885 481.345 244.11 481.334 244.349C481.324 244.581 481.518 244.762 481.734 244.795ZM484.807 218.701C485.287 218.861 485.8 219.013 486.177 219.369C486.602 219.77 487.245 219.129 486.819 218.727C486.323 218.258 485.684 218.037 485.049 217.825C484.492 217.64 484.256 218.517 484.807 218.701ZM486.891 236.34C487.023 236.566 487.29 236.606 487.512 236.503C487.81 236.365 488.139 236.369 488.46 236.369C489.046 236.368 489.045 235.46 488.46 235.461C487.965 235.461 487.507 235.508 487.053 235.719C486.83 235.823 486.776 236.144 486.891 236.34ZM488.068 257.747C488.322 257.757 488.511 257.532 488.522 257.293C488.532 257.062 488.339 256.881 488.122 256.847C488.089 256.621 487.91 256.458 487.675 256.447C487.436 256.436 487.212 256.663 487.221 256.901C487.238 257.358 487.61 257.731 488.068 257.747ZM405.305 261.181C405.459 260.626 405.812 260.177 406.079 259.678C406.169 259.51 406.2 259.405 406.248 259.282C406.314 259.413 406.442 259.513 406.634 259.513C407.003 259.513 407.435 259.489 407.779 259.647C408.003 259.749 408.266 259.713 408.4 259.484C408.515 259.287 408.46 258.965 408.237 258.863C407.73 258.63 407.185 258.605 406.634 258.604C406.498 258.604 406.395 258.655 406.323 258.73C406.112 255.851 406.118 252.971 406.317 250.09C406.529 247.012 407.017 243.995 407.528 240.957C407.776 239.483 408.097 237.995 408.035 236.495C407.972 235.005 407.333 233.615 407.786 232.121C407.968 231.521 408.279 230.972 408.481 230.379C408.698 229.741 408.679 229.112 408.58 228.451C408.376 227.106 408.039 225.777 408.579 224.464C408.817 223.881 409.203 223.361 409.389 222.76C409.621 222.012 409.589 221.185 409.628 220.409C409.706 218.845 409.727 217.271 409.856 215.71C409.914 215.011 410.04 214.348 410.327 213.707C410.603 213.089 411.013 212.528 411.196 211.873C411.378 211.228 411.394 210.548 411.491 209.889C411.594 209.192 411.754 208.505 411.969 207.835C412.803 205.243 414.33 202.914 416.135 200.895C418.053 198.748 420.345 197.132 422.779 195.626C424.058 194.834 425.338 194.042 426.617 193.25C426.644 193.398 426.739 193.535 426.921 193.596C427.401 193.756 427.914 193.908 428.29 194.264C428.715 194.665 429.359 194.023 428.933 193.622C428.488 193.202 427.93 192.981 427.361 192.787C427.944 192.42 428.533 192.04 429.19 191.828C429.766 191.642 430.615 191.804 431.082 191.382C431.449 191.049 431.565 190.433 431.705 189.981C431.881 189.421 432.034 188.829 432.257 188.285C432.41 187.912 432.631 187.555 432.91 187.266C433.033 186.794 433.258 186.363 433.655 186.101C434.695 185.413 435.973 186.096 436.431 187.077C436.809 187.076 437.207 187.159 437.575 187.181C438.331 187.229 439.089 187.251 439.846 187.248C441.328 187.244 442.811 187.147 444.281 186.951C446.908 186.599 449.458 185.89 452.041 185.337C452.056 185.303 452.073 185.269 452.093 185.235C452.65 184.302 454.036 184.459 454.91 184.812C455.284 184.963 455.666 185.154 455.88 185.508C456.108 185.661 456.304 185.848 456.435 186.044C456.705 186.449 456.914 187.266 457.462 187.335C457.823 187.379 458.19 187.31 458.557 187.362C459.016 187.425 459.427 187.587 459.85 187.77C463.075 189.17 466.409 190.726 469.909 191.269C470.73 191.396 471.566 191.527 472.279 191.987C472.858 192.36 473.306 192.873 473.784 193.36C474.249 193.835 474.633 194.045 475.297 194.13C476.104 194.233 476.802 194.456 477.391 195.041C477.881 195.528 478.2 196.15 478.584 196.716C478.975 197.292 479.548 197.617 480.143 197.952C481.55 198.744 482.86 199.701 484.002 200.848C486.406 203.268 487.861 206.378 489.329 209.409C490.915 212.687 492.398 216.004 493.427 219.505C494.435 222.942 495.035 226.477 495.312 230.046C495.604 233.79 495.645 237.549 495.888 241.296C496.009 243.168 496.101 245.042 496.194 246.914C496.285 248.765 496.418 250.618 496.396 252.47C496.355 256.051 495.639 259.644 494.386 262.997C494.074 263.831 493.728 264.654 493.359 265.464C493.035 266.176 491.928 266.096 491.58 265.464C491.501 265.319 491.438 265.169 491.386 265.017C490.478 265.025 489.56 264.955 488.657 265.039C487.063 265.187 485.465 265.27 483.867 265.369C480.703 265.565 477.533 265.696 474.369 265.876C474.062 265.894 473.754 265.911 473.448 265.93C475.703 258.952 475.41 251.409 475.767 244.153C475.796 243.568 474.887 243.571 474.859 244.153C474.5 251.44 474.806 259.003 472.471 265.991C471.565 266.053 470.66 266.128 469.758 266.237C469.029 266.325 468.297 266.428 467.561 266.392C466.726 266.352 465.911 266.161 465.097 265.995C463.617 265.695 462.192 265.831 460.707 266.016C459.118 266.215 457.524 266.325 455.925 266.394C449.522 266.674 443.077 266.93 436.677 266.502C435.128 266.398 433.583 266.253 432.044 266.056C430.459 265.852 428.89 265.511 427.306 265.317C425.745 265.126 424.31 265.649 422.766 265.746C421.193 265.845 419.577 265.516 418.017 265.328C417.509 265.266 417 265.207 416.49 265.147C417.146 260.655 417.519 256.129 417.881 251.606C417.928 251.022 417.019 251.027 416.972 251.606C416.613 256.094 416.249 260.586 415.594 265.043C412.894 264.729 410.192 264.411 407.52 263.922C406.759 263.783 406.003 263.557 405.548 262.879C405.211 262.376 405.142 261.76 405.305 261.181Z" fill="black"/>
<path fill-rule="evenodd" clip-rule="evenodd" d="M425.804 165.936C426.048 163.789 425.732 159.301 425.711 159.029C425.577 157.305 426.383 150.499 427.907 151.126C430.464 149.099 433.869 148.651 437.054 148.437C443.668 147.993 450.704 149.013 455.811 153.471C458.337 155.787 460.796 159.154 460.598 162.661C462.893 165.984 466.128 170.543 463.269 174.429C462.297 175.67 460.752 176.132 459.531 177.073C457.075 179.057 455.535 181.904 453.056 183.876C446.488 189.788 435.335 191.023 428.883 184.299C423.893 179.429 424.699 172.144 425.577 165.936C426.167 161.762 425.328 170.124 425.804 165.936Z" fill="#F2F2F2"/>
<path fill-rule="evenodd" clip-rule="evenodd" d="M445.889 139.333C444.12 138.975 442.304 138.753 440.498 138.82L440.358 138.825C438.999 138.88 437.278 139 436.092 139.792C436.024 139.723 435.914 139.688 435.815 139.736C434.406 140.409 432.856 140.896 431.373 141.38C429.896 141.862 428.364 142.18 426.816 142.308C426.234 142.356 425.735 142.986 426.104 143.551C426.192 143.686 426.277 143.821 426.362 143.958C426.22 143.943 426.078 143.928 425.935 143.913C425.467 143.866 424.999 144.367 425.027 144.823C425.044 145.111 425.075 145.395 425.121 145.675C424.943 145.671 424.765 145.698 424.594 145.771C423.726 146.138 423.787 147.173 423.852 147.96C423.942 149.053 424.35 150.21 425.107 151.028C424.542 151.617 424.141 152.32 423.902 153.154C423.729 153.764 423.633 154.413 423.68 155.047L423.695 155.237C423.754 155.926 423.871 156.688 424.366 157.184C424.62 157.439 424.932 157.532 425.23 157.503C425.05 159.089 424.935 160.685 424.826 162.275L424.775 163.035C424.532 166.711 424.35 170.41 424.397 174.091C424.442 177.531 425.12 180.871 427.227 183.664C429.146 186.207 431.9 188.083 435.016 188.795C436.696 189.18 438.41 189.207 440.11 188.962C440.934 188.843 441.763 188.66 442.545 188.372C443.411 188.052 444.033 187.581 444.615 186.875C444.891 186.54 444.758 185.827 444.21 185.894C443.38 185.995 442.623 186.116 441.827 186.362L441.714 186.398C440.921 186.652 440.101 186.842 439.273 186.923C437.576 187.087 435.854 186.921 434.229 186.406C431.583 185.566 429.304 183.694 427.843 181.343C426.11 178.555 425.914 175.391 425.939 172.185C425.966 168.668 426.08 165.149 426.266 161.635L426.298 161.05C426.396 159.241 426.492 157.432 426.575 155.623C426.601 155.055 426.641 154.483 426.713 153.917C427.366 153.533 427.952 153.004 428.334 152.352C429.101 152.67 429.908 152.899 430.65 153.082C432.37 153.505 434.155 153.608 435.905 153.343C436.377 153.538 436.859 153.71 437.348 153.858C437.48 153.916 437.612 153.974 437.744 154.031C438.923 154.536 440.118 154.964 441.362 155.277L441.668 155.353C442.322 155.515 443.034 155.674 443.73 155.724C443.845 155.768 443.968 155.806 444.103 155.839C444.738 155.993 445.396 156.042 446.047 155.987C446.68 155.934 447.138 155.293 446.789 154.692C446.534 154.254 446.277 153.817 446.017 153.381C446.92 153.758 447.853 154.071 448.793 154.337C449.743 154.605 450.706 154.831 451.671 155.038C452.186 155.149 452.704 155.246 453.218 155.356C453.587 155.435 454.152 155.475 454.453 155.718C454.784 155.985 454.879 156.607 455.004 156.991C455.17 157.489 455.325 157.989 455.467 158.496C455.749 159.506 455.98 160.531 456.159 161.566C456.338 162.602 456.458 163.649 456.525 164.699C456.592 165.747 456.563 166.803 456.67 167.847C456.728 168.401 457.322 168.686 457.76 168.299C457.812 168.254 457.863 168.208 457.915 168.161L457.991 168.091C458.367 167.751 458.73 167.39 459.03 166.983C459.085 166.909 459.137 166.83 459.186 166.751C459.194 166.751 459.2 166.749 459.208 166.743L459.292 166.68C460.208 165.997 461.739 165.106 462.633 166.241C462.918 166.603 463.063 167.063 463.184 167.507L463.397 168.302C463.534 168.821 463.663 169.343 463.739 169.874C463.91 171.064 463.824 172.435 463.007 173.388C462.68 173.77 462.231 174.042 461.729 174.114C461.449 174.152 461.172 174.105 460.895 174.069C460.612 174.034 460.341 174.091 460.058 174.064C459.61 174.02 459.413 174.558 459.581 174.896C459.672 175.077 459.778 175.234 459.9 175.367C459.802 175.451 459.709 175.542 459.62 175.637C459.355 175.722 459.117 175.905 458.939 176.147C458.795 176.342 458.72 176.554 458.708 176.778C458.692 176.833 458.678 176.89 458.666 176.948L458.422 177.343C458.369 177.43 458.316 177.515 458.262 177.599C457.644 178.576 456.957 179.402 456.104 180.18C455.282 180.93 454.39 181.6 453.618 182.404L453.528 182.499C452.808 183.259 452.05 184.178 452.331 185.282C452.404 185.566 452.799 185.77 453.058 185.579C453.888 184.961 454.306 183.983 455.011 183.234C455.736 182.462 456.54 181.768 457.267 180.999C457.955 180.272 458.498 179.449 458.907 178.544C459.07 178.724 459.308 178.852 459.638 178.902C460.204 178.988 460.733 178.655 460.98 178.164C461.138 178.234 461.3 178.297 461.463 178.347C462.322 178.611 462.863 177.654 462.539 176.947C462.366 176.568 462.149 176.238 461.88 175.962C462.72 175.846 463.575 175.411 464.126 174.869C465.511 173.505 465.701 171.457 465.39 169.635C465.224 168.669 464.939 167.692 464.568 166.785C464.504 166.627 464.435 166.468 464.359 166.312C464.401 166.31 464.444 166.292 464.471 166.257C464.721 165.914 465.026 165.634 465.212 165.25C465.383 164.898 465.573 164.542 465.708 164.175C465.986 163.425 466.122 162.578 466.212 161.785C466.399 160.161 466.327 158.547 466.079 156.933C465.656 154.184 464.635 151.553 463.132 149.245C463.214 149.201 463.292 149.149 463.365 149.088L463.401 149.056L463.46 149.003C463.889 148.614 463.852 147.885 463.46 147.491L463.336 147.367C463.179 147.211 463.044 147.087 462.791 146.917C462.753 146.892 462.715 146.869 462.677 146.847C462.809 146.601 462.855 146.314 462.763 145.998C462.441 144.895 460.857 144.934 459.853 145.415C458.742 144.422 457.51 143.56 456.175 142.862C452.995 141.2 449.4 140.041 445.889 139.333ZM462.326 168.378C461.732 168.184 460.943 168.592 460.409 168.837C459.733 169.148 459.157 169.608 458.6 170.093C458.322 170.336 458.272 170.734 458.341 171.073C458.348 171.107 458.355 171.142 458.363 171.177C458.437 171.539 458.84 171.824 459.197 171.814C459.944 171.794 460.3 171.148 460.722 170.601C460.772 170.689 460.834 170.771 460.912 170.832L460.964 170.873C461.139 171.007 461.333 171.114 461.564 171.104C461.729 171.096 461.886 171.054 462.031 170.978C462.394 170.786 462.553 170.316 462.455 169.933C462.394 169.693 462.253 169.504 462.07 169.374L462.138 169.327C462.285 169.225 462.418 169.117 462.522 168.959L462.546 168.921H462.537C462.65 168.726 462.576 168.46 462.326 168.378Z" fill="black"/>
<path fill-rule="evenodd" clip-rule="evenodd" d="M434.279 179.801C435.115 180.043 436.013 180.065 436.866 179.815C437.639 179.588 438.433 179.088 439.003 178.428C439.508 177.841 439.836 177.128 439.823 176.366C439.821 176.28 439.79 176.207 439.743 176.151C439.691 176.09 439.619 176.048 439.542 176.03C439.463 176.012 439.379 176.018 439.308 176.051C439.243 176.08 439.188 176.13 439.153 176.203C439.066 176.317 438.978 176.431 438.891 176.541C438.188 177.409 437.506 178.058 436.449 178.29C435.875 178.416 435.302 178.36 434.776 178.168C434.213 177.962 433.704 177.599 433.305 177.135C433.125 176.925 432.912 176.84 432.704 176.838C432.469 176.837 432.236 176.946 432.06 177.121C431.888 177.293 431.772 177.527 431.762 177.771C431.752 177.986 431.822 178.21 432.009 178.41C432.623 179.069 433.418 179.552 434.279 179.801ZM434.305 168.928C433.447 169.449 432.141 170.664 433.063 171.956C434.149 173.094 435.712 171.789 436.483 171.198C437.197 170.74 438 171.918 437.337 172.452C431.77 176.572 429.511 169.064 433.871 168.316C434.351 168.233 434.529 168.767 434.305 168.928ZM442.326 166.636C442.602 166.46 442.926 166.399 443.285 166.563C443.566 166.69 444.059 167.116 444.401 167.675C444.636 168.058 444.802 168.506 444.767 168.974C444.759 169.083 444.799 169.163 444.863 169.222C444.913 169.269 444.985 169.303 445.07 169.314C445.142 169.323 445.223 169.315 445.288 169.294C445.413 169.255 445.479 169.174 445.504 169.108C445.744 168.471 445.64 167.761 445.371 167.119C445.008 166.254 444.349 165.529 443.917 165.295C443.178 164.895 442.307 164.877 441.567 165.284C440.937 165.631 440.543 166.191 440.151 166.762C440.068 166.884 439.985 167.004 439.9 167.122C439.728 167.36 439.711 167.595 439.778 167.796C439.851 168.02 440.038 168.208 440.273 168.307C440.489 168.398 440.74 168.411 440.963 168.317C441.15 168.238 441.323 168.084 441.432 167.822C441.615 167.381 441.921 166.895 442.326 166.636ZM428.329 167.617C428.517 167.715 428.665 167.745 428.874 167.682C428.99 167.647 429.105 167.581 429.194 167.491C429.283 167.402 429.347 167.292 429.372 167.17C429.433 166.867 429.599 166.585 429.834 166.4C430.036 166.243 430.29 166.159 430.572 166.206C430.877 166.257 431.167 166.452 431.366 166.682C431.433 166.759 431.485 166.847 431.538 166.933C431.636 167.096 431.732 167.247 431.868 167.366C431.919 167.411 431.997 167.443 432.072 167.443C432.102 167.443 432.133 167.438 432.163 167.429C432.466 167.125 432.524 166.894 432.514 166.665C432.504 166.426 432.409 166.183 432.257 165.956C431.898 165.425 431.217 164.989 430.758 164.89C430.129 164.755 429.504 164.918 429.003 165.269C428.487 165.63 428.105 166.191 427.986 166.824C427.958 166.976 427.97 167.14 428.028 167.283C428.085 167.422 428.183 167.541 428.329 167.617ZM440.939 160.97C441.316 161.338 441.763 161.395 442.215 161.445C442.466 161.474 442.667 161.497 442.864 161.541C443.407 161.663 443.943 161.848 444.432 162.113C444.943 162.391 445.5 162.725 445.901 163.154C445.997 163.256 446.086 163.363 446.176 163.47C446.258 163.568 446.337 163.662 446.421 163.753C446.516 163.858 446.607 163.967 446.698 164.076C446.753 164.168 446.765 164.191 446.776 164.214C446.793 164.249 446.812 164.289 446.835 164.332C446.866 164.39 446.902 164.453 446.94 164.511C447.002 164.617 447.036 164.646 447.065 164.659C447.114 164.68 447.16 164.691 447.204 164.685C447.246 164.68 447.285 164.66 447.324 164.627C447.518 164.463 447.575 164.195 447.569 163.91C447.56 163.477 447.401 162.998 447.253 162.703C446.911 162.019 446.436 161.307 445.866 160.796C445.214 160.213 444.502 159.772 443.683 159.468C443.174 159.279 442.585 159.105 442.031 159.127C441.632 159.143 441.252 159.261 440.937 159.557C440.744 159.739 440.651 159.997 440.651 160.256C440.651 160.519 440.748 160.784 440.939 160.97ZM427.561 164.337C427.585 164.376 427.618 164.404 427.655 164.42C427.694 164.437 427.737 164.442 427.778 164.435C427.82 164.428 427.859 164.409 427.89 164.38C427.92 164.353 427.943 164.317 427.953 164.272C428.204 163.172 428.691 162.353 429.729 161.825C430.24 161.565 430.828 161.4 431.384 161.268C431.546 161.23 431.717 161.205 431.889 161.18C432.428 161.102 432.971 161.012 433.323 160.576C433.534 160.314 433.623 159.978 433.573 159.671C433.526 159.382 433.357 159.117 433.05 158.958C432.285 158.563 431.335 158.951 430.563 159.281C430.506 159.306 430.45 159.33 430.395 159.353C429.64 159.672 428.951 160.092 428.385 160.693C427.936 161.17 427.52 161.876 427.352 162.601C427.213 163.205 427.246 163.821 427.561 164.337Z" fill="black"/>
<path fill-rule="evenodd" clip-rule="evenodd" d="M431.899 181.634C432.957 180.692 434.142 178.799 435.662 180.297C436.037 180.72 436.19 181.669 436.764 181.855C437.527 182.103 438.284 181.296 438.544 180.676C439.608 177.233 435.209 176.288 432.703 176.844C431.479 177.347 430.578 179.37 430.523 180.425C430.488 181.134 431.089 182.178 431.899 181.634ZM423.921 176.326C423.931 176.281 423.946 176.239 423.963 176.202C424.431 176.025 424.801 176.205 425.03 176.542C425.022 176.626 424.997 176.71 424.981 176.793C425.158 177.165 425.317 177.625 425.556 177.946C425.603 177.95 425.652 177.945 425.699 177.931C429.664 178.345 427.728 174.199 431.75 173.169C434.858 172.656 440.476 173.243 441.942 176.477C443.099 181.643 448.979 178.043 450.91 175.357C452.97 172.912 454.302 169.925 455.586 167.026C455.858 166.413 456.705 166.851 456.612 167.44C457.8 169.82 457.76 172.679 458.054 175.287C458.554 180.489 459.041 187.785 454.205 190.962C447.905 198.08 432.17 200.592 424.903 194.052C422.387 188.645 422.697 182.05 423.921 176.326Z" fill="black"/>
<path fill-rule="evenodd" clip-rule="evenodd" d="M428.06 160.487C425.394 160.487 423.873 161.06 423.316 161.105L423.299 161.106C423.067 161.121 422.859 161.14 422.641 161.225C421.839 161.533 421.708 162.375 422.176 162.905C422.209 164.001 422.065 165.283 422.312 166.384C422.618 171.022 424.8 171.805 426.041 172.091C426.664 172.235 427.402 172.292 428.064 172.14C429.193 172.098 430.309 171.745 431.263 171.13C432.593 170.273 433.58 168.955 433.901 167.392C434.053 166.646 434.124 165.871 434.041 165.113L434.029 165.009C434.461 164.802 434.962 164.763 435.478 164.745C435.725 164.736 435.968 164.728 436.204 164.739C436.435 164.764 436.663 164.799 436.892 164.845C437.142 164.921 437.377 165.045 437.595 165.242L437.61 165.529C437.651 166.247 437.746 166.968 437.891 167.672C438.106 168.711 438.451 169.704 439.187 170.441C439.435 170.813 439.743 171.145 440.117 171.432C441.476 172.477 443.321 172.861 445.014 172.716C448.452 172.423 450.44 169.695 450.898 168.529L450.925 168.458C451.256 167.591 451.52 166.467 452.565 166.28L452.787 166.241C453.264 166.151 453.705 166.026 453.984 165.561C454.107 165.358 454.17 165.131 454.186 164.899C454.349 164.912 454.512 164.924 454.674 164.935C455.97 165.209 463.74 165.442 464.36 165.442C464.36 165.442 465.552 165.943 466.056 165.554C466.405 165.284 466.519 164.924 466.327 164.516C466.038 163.902 464.701 163.533 464.107 163.416C464.107 163.416 454.527 163.496 453.837 163.365C453.411 162.925 452.648 162.985 452.01 162.916C451.482 162.54 450.744 162.288 450.16 162.119C450.041 162.074 449.924 162.03 449.809 161.989C448.74 161.609 447.628 161.407 446.5 161.299C445.336 161.188 444.169 161.238 443.012 161.397C442.524 161.463 442.041 161.548 441.562 161.66C440.703 161.773 439.849 161.96 438.99 162.181L438.818 162.225C437.914 162.462 436.984 162.667 436.048 162.507C435.285 162.377 434.552 162.084 433.849 161.766L433.758 161.725C432.212 161.02 429.798 160.487 428.06 160.487ZM441.655 163.066C442.225 162.941 442.469 163.82 441.896 163.946C441.491 164.035 441.148 164.239 440.916 164.585L440.892 164.622C440.58 165.117 439.793 164.66 440.107 164.162C440.459 163.601 441.007 163.209 441.655 163.066ZM424.952 162.521C425.153 162.38 425.457 162.485 425.574 162.685C425.703 162.905 425.618 163.15 425.43 163.295L425.411 163.309C425.238 163.43 425.07 163.648 425.049 163.872L425.047 163.9C425.024 164.485 424.115 164.488 424.138 163.9C424.16 163.325 424.493 162.844 424.952 162.521Z" fill="#03FA71"/>
<path fill-rule="evenodd" clip-rule="evenodd" d="M73.3299 210.294C72.3402 206.48 71.4299 204.863 69.6716 203.537C68.027 202.297 65.6263 201.255 62.1233 200.495C58.4748 199.861 58.3714 197.977 57.4566 194.948C57.1897 194.038 55.8672 193.796 55.2964 194.452C55.2159 194.366 55.132 194.287 55.0452 194.215C55.1229 193.781 54.4867 192.537 54.5079 192.121C54.7298 187.786 53.3028 185.61 49.741 184.8C48.9664 184.624 43.7051 184.521 42.9498 184.728C39.6481 185.635 36.3978 188.515 36.8952 191.984C35.8587 193.33 34.8444 194.151 33.2454 194.585C30.7553 194.899 32.0062 229.951 36.3309 250.95C38.1864 259.96 82.5541 244.625 80.5492 240.112C80.8334 239.285 80.3154 238.376 80.5492 237.522C80.7184 236.904 81.1518 236.648 81.3699 236.036C81.6768 235.174 81.343 234.019 80.9975 233.14C80.8558 232.702 81.2581 232.23 81.3699 231.783C81.9001 229.675 80.686 229.861 79.8107 228.451C79.8238 228.447 80.0514 227.441 80.0503 227.446C80.1844 226.727 79.8486 225.807 79.5558 225.207C79.3578 224.802 78.9338 224.548 78.5126 224.595C78.9368 223.164 79.4734 221.973 80.0503 220.594C81.0708 218.164 82.0411 215.622 83.5064 213.422C84.1065 212.521 83.6218 211.693 82.6508 211.631C79.5078 211.433 76.3992 210.983 73.3299 210.294Z" fill="#F2F2F2"/>
<path fill-rule="evenodd" clip-rule="evenodd" d="M68.4235 210.589L61.249 222.654C61.249 222.654 62.951 222.822 63.6398 223.151C64.3286 223.48 67.4912 227.475 67.4912 227.475L67.9936 229.675L66.803 231.448L67.2673 232.562C67.2673 232.562 67.5986 231.807 68.4235 231.222C69.2483 230.636 71.0673 229.675 71.0673 229.675C71.0673 229.675 70.4628 229.353 70.4628 228.976C70.4628 228.599 69.9304 226.989 71.0673 226.381C72.2043 225.773 78.0795 224.351 78.0795 224.351L84.0339 211.87L68.4235 210.589Z" fill="#FA035C"/>
<path fill-rule="evenodd" clip-rule="evenodd" d="M36.4186 194.667L59.1996 198.64L69.6716 203.537L71.3811 204.846L61.249 222.654L45.6043 225.49L41.6184 235.777L42.432 247.373L67.8829 244.358L78.8613 243.062L81.442 253.415L80.9758 257.673L80.2977 259.833L53.0817 267.134C53.0817 267.134 39.2229 265.799 36.7662 265.799C34.3095 265.799 16.2974 267.577 16.2974 267.577L12.1299 267.134C12.1299 267.134 2.90926 257.478 1.47915 254.041C0.0490413 250.604 -3.04346 229.713 -3.04346 229.713L-2.70294 226.503L5.26345 206.131C5.26345 206.131 6.32726 205.171 7.66844 203.537C9.00962 201.903 36.4186 194.667 36.4186 194.667Z" fill="#FA035C"/>
<path fill-rule="evenodd" clip-rule="evenodd" d="M77.6499 224.093C75.5911 224.197 73.5301 224.684 71.6677 225.565C70.9058 225.926 70.2153 226.447 70.0132 227.305C69.911 227.743 69.936 228.196 69.9904 228.638C70.0314 228.973 70.0416 229.401 70.3346 229.628C70.3845 229.666 70.4379 229.695 70.4936 229.717C69.8065 230.025 69.1523 230.395 68.5709 230.776C68.0396 231.125 67.4934 231.662 67.2481 232.268C67.2277 232.199 67.2072 232.135 67.1868 232.074C66.7689 230.847 66.125 229.841 65.111 229.165C64.9958 228.748 63.76 226.953 62.6121 227.021C61.355 227.094 60.3439 227.186 59.2071 227.76C58.7927 227.751 58.3793 227.757 57.9706 227.775C57.9002 227.777 57.9036 227.872 57.9706 227.88C58.3022 227.921 58.6337 227.968 58.9653 228.022C59.7534 228.147 60.5392 228.306 61.3079 228.504C62.2301 228.741 63.1839 228.979 64.0458 229.393C65.7173 230.198 66.7519 232.301 66.5395 234.131C66.5043 234.432 66.3874 235.339 65.9682 235.245C65.614 235.166 65.4732 234.432 65.3495 234.16C65.0179 233.437 64.4206 232.966 63.704 232.646C62.8626 232.271 61.9621 232.017 61.0898 231.721C60.596 231.553 60.102 231.385 59.6069 231.218C59.1004 231.045 58.619 230.807 58.0796 230.928C57.7537 231.001 57.7162 231.387 57.899 231.608C58.1772 231.946 58.5906 232.045 58.9914 232.184C59.5206 232.367 60.0486 232.549 60.5767 232.732C61.393 233.014 62.2482 233.252 63.0442 233.598L63.0193 233.654C62.9544 233.636 62.8784 233.7 62.891 233.779C63.0102 234.51 63.176 235.354 62.9919 236.085C62.8467 236.665 62.3344 237.307 61.6691 237.137C61.7736 237.042 61.8122 236.878 61.7418 236.727C61.4782 236.167 58.0262 233.958 57.7185 234.778C57.7083 234.807 57.7399 234.829 57.765 234.825C58.0273 234.77 58.4668 235.215 58.6768 235.356C58.98 235.559 59.2877 235.758 59.5876 235.966C59.9158 236.195 60.236 236.434 60.5483 236.681C60.7936 236.875 60.9787 237.077 61.2602 237.175C61.1127 237.245 60.9956 237.375 60.9457 237.541C60.8186 237.973 60.5733 238.34 60.1474 238.531C59.7012 238.729 59.1981 238.604 58.728 238.652C58.0875 238.717 57.5288 239.019 57.0621 239.451C56.0821 240.361 55.5904 241.963 54.2198 242.393C53.4011 242.65 52.4926 242.488 51.6636 242.372C50.7382 242.242 49.8365 242.139 48.9042 242.275C48.0117 242.405 47.168 242.712 46.3526 243.086C45.5884 243.437 44.7435 243.834 44.0656 244.358C43.9259 243.93 43.7851 243.507 43.6783 243.07C43.4263 242.038 43.29 240.986 43.257 239.925C43.2264 238.915 43.2832 237.901 43.3705 236.895C43.4138 236.393 43.4819 235.893 43.5251 235.391C43.5363 235.265 43.5591 235.129 43.5762 234.994C44.7867 234.284 46.0584 233.74 47.3404 233.18C47.344 233.179 47.3474 233.177 47.3508 233.176C47.3905 233.158 47.4291 233.141 47.4689 233.124C47.4677 233.121 47.4666 233.119 47.4643 233.117C47.6108 233.028 47.713 232.909 47.7743 232.776C49.6219 231.558 51.1663 229.896 52.3177 227.957C52.8003 227.145 53.2648 226.302 53.8962 225.59C54.5684 224.83 55.3667 224.379 56.3547 224.144C57.5095 223.869 58.6996 223.704 59.8829 223.61C60.529 223.56 61.2511 223.481 61.9553 223.484C62.4458 223.487 62.926 223.529 63.3668 223.65C64.0197 223.828 64.4013 224.321 64.8112 224.82C65.203 225.299 65.5925 225.778 65.9581 226.277C66.3044 226.75 66.6315 227.239 66.9154 227.751C67.0857 228.058 67.2436 228.374 67.3764 228.7C67.423 228.815 67.4843 228.946 67.5127 229.066C67.5411 229.186 67.4889 229.314 67.6251 229.314C67.063 229.322 66.6894 230.715 67.2481 230.682C68.0337 230.637 68.4286 229.701 68.2747 228.87C68 227.389 66.5171 225.6 66.2237 225.221C65.5753 224.383 64.9066 223.291 63.8687 222.902C63.8539 222.896 63.838 222.891 63.8233 222.886C64.1253 222.602 64.3638 222.261 64.592 221.914C64.8271 221.558 65.1075 221.149 65.1848 220.726C65.2336 220.456 64.8964 220.303 64.7363 220.539C64.5035 220.883 64.391 221.318 64.2173 221.697C64.0402 222.08 63.8244 222.442 63.6541 222.829C63.2441 222.704 62.8013 222.647 62.3504 222.628C62.9193 221.862 63.8913 220.386 64.0084 220.197C64.5466 219.319 65.0588 218.414 65.5482 217.507C66.0772 216.526 66.5304 215.503 67.0369 214.51C67.3242 213.947 67.6138 213.379 67.9329 212.833C68.043 212.646 68.1611 212.459 68.2951 212.288C68.3212 212.254 68.3542 212.226 68.3848 212.194C68.42 212.175 68.4564 212.154 68.4768 212.143C68.6606 212.038 68.7255 211.794 68.8548 211.639C69.0616 211.39 69.3046 211.361 69.6158 211.357C70.2788 211.35 70.9444 211.376 71.6064 211.394C72.5796 211.421 73.5516 211.46 74.5237 211.511C74.8178 211.526 75.1108 211.542 75.4049 211.56C76.8186 211.644 78.2313 211.753 79.6405 211.888C80.8874 212.006 82.1342 212.199 83.3822 212.292C81.6925 216.281 79.8188 220.198 77.6975 223.978C77.676 224.017 77.66 224.055 77.6499 224.093ZM68.2747 234.371C68.0021 234.495 67.7375 234.649 67.4911 234.826C67.532 234.551 67.5422 234.262 67.5309 233.972C67.7341 234.189 67.9942 234.313 68.2747 234.371ZM79.9085 227.508C79.8892 227.511 79.871 227.521 79.8619 227.54C79.4849 228.313 79.6427 229.176 80.2583 229.782C80.5807 230.098 81.2837 230.455 81.2608 230.974C81.2415 231.394 80.7817 231.746 80.5853 232.092C80.4025 232.415 80.3343 232.769 80.4808 233.119C80.6682 233.567 81.1917 233.746 81.3711 234.186C81.5982 234.744 81.2292 235.418 80.9703 235.904C80.7295 236.355 80.4183 236.805 80.2117 237.281C78.8274 237.993 75.6865 239.286 75.3082 239.359C74.8473 239.448 74.3851 239.533 73.9217 239.612C73.0326 239.765 72.1413 239.907 71.2476 240.032C70.7388 240.104 70.229 240.173 69.7191 240.229C69.274 240.276 68.772 240.341 68.4132 240.008C67.6898 239.335 68.0952 238.208 68.5529 237.528C68.562 237.515 68.562 237.502 68.5586 237.491C68.9901 237.391 69.4204 237.273 69.8497 237.191C70.6752 237.033 71.5065 236.9 72.3388 236.781C74.049 236.539 75.7705 236.378 77.4896 236.217C77.9155 236.176 77.92 235.511 77.4896 235.55C75.0198 235.775 72.5376 235.988 70.1006 236.461C69.4897 236.578 68.8832 236.711 68.2803 236.861C67.9953 236.931 67.6898 237.041 67.3912 237.044C67.373 237.044 67.3547 237.044 67.3367 237.043C66.7519 237.025 66.6667 236.527 66.9881 236.113C67.0278 236.062 67.0687 236.012 67.1107 235.963C67.6785 235.29 68.3858 234.841 69.1149 234.376C69.9314 234.266 70.7456 234.02 71.5451 233.839C73.5187 233.392 75.4923 232.945 77.467 232.5C77.8541 232.412 77.6896 231.82 77.3024 231.907C75.8034 232.245 74.3045 232.582 72.8054 232.919L70.6116 233.414C70.1733 233.512 69.6259 233.709 69.1103 233.781C68.8561 233.815 68.6097 233.82 68.3871 233.768C67.6683 233.599 67.6319 232.706 67.9419 232.176C68.2894 231.58 68.9458 231.208 69.5283 230.87C70.5378 230.284 71.6121 229.863 72.6613 229.378C72.8476 229.338 73.0338 229.297 73.22 229.256C74.3034 229.019 75.5411 228.903 76.5609 228.469C76.8663 228.34 76.6993 227.861 76.3973 227.868C75.6059 227.885 74.778 228.165 74.0047 228.331C73.1678 228.512 72.3298 228.691 71.4928 228.87C71.4088 228.888 70.9114 229.046 70.8365 229.011C70.7888 228.989 70.7718 228.824 70.7559 228.716C70.7047 228.359 70.6673 227.985 70.7229 227.627C70.8456 226.824 71.519 226.447 72.2003 226.139C73.7174 225.454 75.381 225.026 77.0367 224.854C77.4182 224.815 77.7998 224.79 78.1836 224.777C78.6343 224.764 79.0057 224.685 79.234 225.126C79.5928 225.821 79.7904 226.715 79.9085 227.508ZM77.8016 252.713C77.471 251.577 77.5609 250.364 77.3345 249.205C77.2177 248.607 77.0581 248.014 76.8839 247.43C76.7433 246.959 76.5088 246.457 76.4823 245.965C76.4807 245.932 76.5196 245.913 76.5464 245.928C77.0128 246.194 77.371 246.768 77.6369 247.218C77.9553 247.757 78.1985 248.321 78.3946 248.914C78.7854 250.096 79.1063 251.522 78.6023 252.713C78.4523 253.067 77.9253 253.138 77.8016 252.713ZM64.9007 261.314C64.4081 260.972 64.0491 260.495 63.6313 260.073C63.2205 259.659 63.8628 259.02 64.2737 259.435C64.6302 259.794 64.9396 260.244 65.3591 260.534C65.561 260.674 65.6544 260.927 65.5221 261.152C65.4052 261.35 65.102 261.454 64.9007 261.314ZM62.1535 248.184C63.0527 247.798 63.9371 247.377 64.8783 247.099C65.4407 246.932 65.6788 247.804 65.1198 247.969C64.253 248.225 63.4401 248.608 62.612 248.964C62.0804 249.192 61.6183 248.414 62.1535 248.184ZM52.6568 247.914C52.4369 247.375 53.3161 247.142 53.5328 247.674C53.7823 248.286 54.0682 248.882 54.3177 249.494C54.5374 250.033 53.6584 250.265 53.4417 249.734C53.1922 249.122 52.9062 248.526 52.6568 247.914ZM43.2833 258.682C43.1368 258.876 42.8926 258.981 42.6618 258.844C42.4685 258.729 42.3506 258.423 42.4989 258.226C42.9318 257.653 43.3705 257.086 43.878 256.575C44.2894 256.16 44.9315 256.799 44.5204 257.213C44.0672 257.67 43.6701 258.17 43.2833 258.682ZM41.943 198.263C42.36 198.546 42.7253 198.889 43.0815 199.243C43.4956 199.655 42.8531 200.293 42.439 199.882C42.1389 199.583 41.8361 199.281 41.4844 199.042C41.2813 198.904 41.1901 198.648 41.3215 198.425C41.4393 198.225 41.7403 198.125 41.943 198.263ZM55.5801 212.791C55.3444 213.26 55.1321 213.72 55.1187 214.253C55.1044 214.834 54.196 214.834 54.2104 214.253C54.2278 213.555 54.4867 212.95 54.7957 212.335C55.0571 211.814 55.8404 212.272 55.5801 212.791ZM60.5836 201.123C61.072 200.799 61.5263 201.582 61.0423 201.902C60.6498 202.162 60.2572 202.422 59.8648 202.682C59.3766 203.006 58.9223 202.223 59.4062 201.903C59.7987 201.643 60.1911 201.383 60.5836 201.123ZM38.8813 221.523C38.7979 222.097 37.9226 221.851 38.0052 221.283C38.133 220.405 38.2889 219.538 38.5286 218.683C38.6855 218.123 39.5616 218.362 39.4046 218.923C39.1648 219.778 39.0089 220.645 38.8813 221.523ZM35.6961 231.865C35.1114 231.852 35.1113 230.95 35.6961 230.962C36.2253 230.973 36.7455 231.111 37.2559 231.238C37.8237 231.379 37.5816 232.249 37.0144 232.109C36.5829 232.001 36.1435 231.874 35.6961 231.865ZM34.5204 252.697C34.3195 252.794 34.1134 252.882 33.9103 252.974C33.5037 253.159 33.0973 253.344 32.691 253.529C31.8445 253.915 30.9985 254.303 30.1533 254.691C28.4613 255.47 26.7563 256.221 25.0602 256.99C23.3306 257.776 21.6056 258.571 19.8827 259.371C19.071 259.747 18.2532 260.11 17.4369 260.477C16.739 260.791 15.8763 261.339 15.1102 261.39C15.0708 261.393 15.0576 261.343 15.0801 261.318C15.3695 260.991 15.8313 260.801 16.2117 260.588C16.6003 260.371 16.9961 260.166 17.3902 259.959C18.2116 259.526 19.0341 259.097 19.8635 258.68C21.5226 257.846 23.1848 257.017 24.8474 256.19C26.543 255.346 28.2365 254.497 29.947 253.683C30.7523 253.3 31.5585 252.918 32.3651 252.537C32.802 252.331 33.2392 252.125 33.6764 251.919C33.8653 251.83 34.0522 251.734 34.2452 251.655C34.5017 251.55 34.6967 251.571 34.9613 251.506C35.3928 251.4 35.5796 251.946 35.2484 252.183C34.9756 252.379 34.8321 252.546 34.5204 252.697ZM28.4557 261.954C28.3625 261.729 28.5577 261.455 28.773 261.399C29.0308 261.331 29.2376 261.487 29.3318 261.714C29.5808 262.316 29.9356 262.869 30.3922 263.335C30.8003 263.752 30.1582 264.391 29.7498 263.973C29.1776 263.389 28.7665 262.705 28.4557 261.954ZM23.9939 247.463C23.5798 247.051 24.2223 246.413 24.6363 246.825L25.8137 247.995C26.2278 248.406 25.5852 249.044 25.1713 248.633L23.9939 247.463ZM11.9149 245.555C11.0685 245.802 10.0812 246.029 9.50412 246.746C9.47596 246.782 9.42861 246.737 9.44553 246.702C10.1843 245.179 12.3031 244.646 13.77 244.112C14.8075 243.735 15.8721 243.422 16.9457 243.143C16.8384 241.926 17.1343 240.621 17.2372 239.41C17.347 238.117 17.4364 236.821 17.4823 235.524C17.5291 234.2 17.5405 232.868 17.4967 231.545C17.4531 230.226 17.2808 228.924 17.2054 227.609C17.1981 227.482 17.3762 227.476 17.4146 227.581C17.8604 228.801 18.0508 230.152 18.196 231.438C18.3454 232.763 18.395 234.083 18.3759 235.416C18.3562 236.786 18.276 238.153 18.166 239.518C18.1138 240.166 18.0533 240.812 17.9962 241.459C17.9526 241.952 17.9324 242.442 17.8311 242.92C18.4786 242.762 19.1276 242.613 19.7745 242.467C21.8374 242.005 23.9089 241.576 25.9631 241.075C26.9715 240.83 27.9654 240.536 28.9693 240.275C29.9145 240.029 30.9122 239.731 31.8827 239.621C32.229 239.582 32.2731 240.052 32.0438 240.212C31.255 240.763 30.2075 241.146 29.2964 241.454C28.3821 241.763 27.4316 241.985 26.4944 242.214C24.54 242.692 22.5671 243.083 20.5971 243.49C18.6299 243.896 16.6589 244.299 14.7137 244.801C13.777 245.042 12.8435 245.285 11.9149 245.555ZM7.2765 221.403C6.77072 221.698 6.31411 220.917 6.81807 220.623C7.47749 220.239 8.18029 219.95 8.88877 219.668C9.43248 219.451 9.6664 220.325 9.1303 220.538C8.49359 220.792 7.86903 221.057 7.2765 221.403ZM5.44508 254.944C4.93794 255.236 4.48099 254.455 4.98665 254.164C5.69683 253.755 6.47458 253.482 7.21054 253.124C7.73415 252.869 8.19405 253.648 7.66897 253.904C6.93312 254.262 6.15526 254.535 5.44508 254.944ZM4.62134 235.904C5.11168 236.367 5.7661 236.585 6.38317 236.828C6.9212 237.04 6.68523 237.913 6.14163 237.699C5.37286 237.396 4.58978 237.119 3.97896 236.543C3.55403 236.141 4.19755 235.504 4.62134 235.904ZM10.046 210.047C10.5851 210.257 10.349 211.13 9.80449 210.918C9.2006 210.683 8.57695 210.503 7.97305 210.268C7.43412 210.058 7.67009 209.185 8.21459 209.397C8.81848 209.633 9.44213 209.812 10.046 210.047ZM19.6158 199.777C20.1886 199.681 20.4325 200.551 19.8573 200.648C19.1437 200.767 18.441 200.907 17.7642 201.168C17.2177 201.378 16.9832 200.505 17.5227 200.297C18.1996 200.037 18.9023 199.897 19.6158 199.777ZM22.7778 224.783C22.2526 224.526 22.7134 223.748 23.2362 224.003C23.7872 224.273 24.358 224.481 24.9592 224.608C25.5316 224.729 25.2878 225.599 24.7176 225.478C24.0411 225.335 23.3973 225.086 22.7778 224.783ZM25.7642 210.697C26.3297 210.543 26.5688 211.415 26.0057 211.568C25.0149 211.838 23.9948 211.978 22.9968 212.218C22.428 212.355 22.1874 211.484 22.7553 211.348C23.7533 211.107 24.7735 210.967 25.7642 210.697ZM38.4332 206.277C39.0082 206.383 38.7632 207.253 38.1918 207.148C37.5835 207.036 36.967 207.034 36.3502 207.034C35.7647 207.034 35.7658 206.131 36.3502 206.131C37.0509 206.131 37.7425 206.15 38.4332 206.277ZM79.7518 210.994C78.2676 210.853 76.7811 210.74 75.2924 210.655C75.223 210.652 75.155 210.647 75.0856 210.644C75.0778 210.628 75.0676 210.613 75.0573 210.598C74.5713 209.889 74.2136 209.18 73.9036 208.379C73.6072 207.616 73.32 206.83 72.8635 206.141C72.3428 205.357 71.6399 204.743 70.8695 204.211C70.4022 204.524 69.9686 204.889 69.5718 205.277C69.1543 205.685 68.5117 205.046 68.9294 204.638C69.282 204.294 69.6583 203.976 70.0561 203.688C69.5968 203.411 69.1281 203.15 68.671 202.891C66.9573 201.92 65.2029 201.021 63.4122 200.2C62.5798 199.817 61.7372 199.477 60.8889 199.133C60.4323 198.948 59.9816 198.71 59.5251 198.496C59.5581 198.175 59.4615 197.816 59.214 197.605C59.0312 197.451 58.8892 197.393 58.6712 197.284C58.6224 197.267 58.5928 197.256 58.5792 197.251C58.5894 197.253 58.6189 197.262 58.6677 197.278C58.7836 197.331 58.7927 197.315 58.695 197.232C58.6894 197.049 58.327 196.663 58.2442 196.474C57.9558 195.828 57.8661 195.144 57.4402 194.555C56.8531 193.743 55.8675 193.437 54.9487 193.712C54.8534 192.736 54.8284 191.717 54.4582 190.845C54.448 190.822 54.4151 190.812 54.4003 190.837C54.0142 191.491 53.9813 192.219 53.9518 192.973C53.9234 193.68 53.9505 194.404 54.0438 195.107C53.9847 195.152 53.9245 195.195 53.8621 195.236C53.5691 195.428 53.2534 195.576 52.9218 195.686C52.2905 195.893 51.6284 195.983 50.9664 196.015C49.2574 196.096 47.4961 195.925 45.8155 195.634C44.1155 195.339 41.5094 194.897 39.9968 194.051C38.9986 193.494 38.0777 192.813 37.1442 192.154C37.4827 191.071 37.569 189.906 37.2283 188.991C37.1875 188.882 37.0149 188.861 36.9819 188.991C36.7684 189.865 36.706 190.743 36.4221 191.606C36.4176 191.618 36.413 191.632 36.4085 191.644C36.3199 191.585 36.2313 191.526 36.1427 191.467C35.9383 191.333 35.6601 191.433 35.5375 191.625C33.5763 194.696 30.4706 194.872 27.2093 195.42C23.6401 196.021 20.053 196.668 16.6213 197.843C13.3395 198.967 10.2031 200.604 7.71846 203.048C7.15602 203.601 6.63003 204.191 6.13356 204.807C6.6139 204.867 7.09027 204.961 7.56051 205.107C8.11728 205.281 7.87801 206.152 7.31897 205.978C6.71463 205.789 6.10358 205.696 5.48629 205.649C3.79805 207.945 2.4817 210.547 1.34341 213.109C-0.839934 218.02 -2.26109 223.25 -2.91506 228.575C-2.556 228.362 -2.19046 228.158 -1.81584 227.968C-1.29529 227.705 -0.836186 228.484 -1.3573 228.748C-1.93598 229.04 -2.49808 229.363 -3.0427 229.712C-3.2806 232.043 -3.37281 234.389 -3.31694 236.732C-3.18408 242.315 -2.42552 248.063 -0.709685 253.391C0.131768 256.005 1.24689 258.599 2.90822 260.808C3.65996 261.809 4.51391 262.712 5.52001 263.465C6.00717 263.83 6.52272 264.157 7.06665 264.432C7.76729 264.789 8.68029 264.906 9.28441 265.41C9.48313 265.576 9.63643 265.795 9.75226 266.042C9.68526 266.512 9.67731 266.982 9.80677 267.452C9.84765 267.599 9.95893 267.718 10.0963 267.776C10.0986 267.816 10.0986 267.856 10.0986 267.894C10.0986 267.912 10.1259 267.917 10.1293 267.899C10.1349 267.864 10.1406 267.829 10.1463 267.793C10.1906 267.807 10.2371 267.814 10.2848 267.814C12.0098 267.821 13.7368 267.779 15.464 267.721C15.3305 267.314 15.1858 266.911 15.0469 266.504C14.8583 265.952 15.736 265.717 15.9229 266.264C16.0854 266.74 16.2553 267.211 16.4064 267.688C18.2571 267.619 20.1071 267.537 21.9539 267.477C25.8818 267.347 29.8086 267.304 33.7375 267.222C39.839 267.093 45.9849 266.83 52.0958 267.087C52.3071 266.642 52.5437 266.206 52.768 265.766C53.0325 265.248 53.8161 265.705 53.5524 266.222C53.3965 266.528 53.235 266.829 53.0816 267.134C54.3193 267.198 55.5557 267.283 56.7894 267.398C58.8948 267.594 60.9798 267.943 63.0828 268.159C65.221 268.381 67.3128 268.341 69.4341 267.99C69.8156 267.927 70.0404 267.698 70.1336 267.413C70.1368 267.412 70.1392 267.41 70.1414 267.407C70.2504 267.28 70.3527 267.175 70.4582 267.084C70.5844 267.003 70.7206 266.934 70.8808 266.873C71.1794 266.76 71.4906 266.691 71.8062 266.645C72.1537 266.593 72.5058 266.588 72.8532 266.546C73.1461 266.508 73.4324 266.453 73.7184 266.385C74.2329 266.264 74.7212 266.104 75.2073 265.893C75.6308 265.709 76.0134 265.445 76.3746 265.158C77.1218 264.615 77.769 263.922 78.3346 263.202C78.6639 262.781 78.9739 262.344 79.2555 261.889C79.7461 261.102 80.164 260.284 80.5864 259.459C80.7397 259.214 80.8796 258.964 81.0075 258.708C80.1819 258.466 79.3484 258.269 78.4733 258.255C77.8882 258.246 77.8883 257.343 78.4733 257.353C79.477 257.369 80.4264 257.602 81.3697 257.879C81.4157 257.758 81.4598 257.636 81.5005 257.512C81.613 257.254 81.7061 256.988 81.7833 256.72C81.8286 256.598 81.8742 256.476 81.9196 256.354C82.0218 255.932 82.124 255.509 82.2273 255.086C82.4328 254.409 82.5951 253.721 82.7145 253.025C82.8144 252.567 82.8916 252.105 82.9438 251.638C83.1028 250.506 83.2323 249.376 83.2414 248.232C83.2277 247.527 83.1823 246.823 83.1051 246.122C83.0722 245.646 83.0165 245.172 82.9416 244.701C82.8439 244.001 82.7474 243.309 82.585 242.618C82.4635 242.151 82.342 241.683 82.2205 241.216C81.9173 240.242 81.5596 239.288 81.1473 238.354C81.1247 238.296 81.0099 238.167 80.9407 238.166C80.8885 238.165 80.8157 238.212 80.8395 238.275C80.8419 238.281 80.8441 238.288 80.8465 238.293C80.8226 238.24 80.7999 238.186 80.7761 238.133C80.7556 238.084 80.6761 237.984 80.6148 237.985C80.6114 237.985 80.6079 237.985 80.6035 237.986C80.6193 237.975 80.6341 237.961 80.6489 237.944C81.0565 237.464 81.3211 236.833 81.613 236.278C81.8548 235.82 82.0831 235.337 82.1489 234.819C82.2067 234.364 82.1285 233.916 81.8412 233.548C81.5142 233.129 80.8987 232.933 81.2405 232.328C81.6289 231.64 82.2001 231.043 81.6311 230.261C81.3416 229.862 80.8828 229.644 80.5421 229.297C80.1504 228.896 79.964 228.36 79.9743 227.813C79.9982 227.827 80.03 227.82 80.0413 227.786C80.3707 226.797 80.1322 225.712 79.7949 224.749C79.611 224.227 79.2214 224.083 78.7684 224.057C80.7305 220.249 82.5667 216.379 84.2032 212.42C84.2577 212.29 84.3111 212.161 84.3643 212.031C84.4439 211.837 84.2759 211.578 84.0817 211.535C82.6668 211.227 81.1928 211.129 79.7518 210.994Z" fill="black"/>
<path fill-rule="evenodd" clip-rule="evenodd" d="M63.2864 163.821C63.0172 160.352 63.4344 156.715 62.0912 153.418C59.7491 147.946 53.1818 146.122 48.0903 144.038C46.0506 143.438 39.1872 143.354 36.7989 142.56C31.3937 140.762 30.1022 138.62 25.8073 142.043C25.0823 142.628 24.6287 143.264 24.2978 144.132L24.3114 144.136C24.2169 144.498 24.3182 144.859 24.5311 145.135C22.6688 147.03 21.8896 149.873 22.845 152.396C25.9632 158.963 25.8166 162.513 24.8119 169.573C23.4999 176.163 26.4979 178.571 31.463 182.157C31.2609 182.547 31.2189 183.066 31.4825 183.41C37.2239 191.445 48.0494 195.281 57.3247 191.203C61.0897 189.534 62.7705 185.541 63.7297 181.938C64.8472 177.904 65.1905 173.653 64.2808 169.543C63.9139 167.643 63.4359 165.756 63.2864 163.821Z" fill="#F2F2F2"/>
<path fill-rule="evenodd" clip-rule="evenodd" d="M22.1641 153.979L25.5779 156.244L37.7979 143.414L33.7314 140.227C33.7314 140.227 26.3537 145.657 24.9031 147.09C23.4525 148.523 22.1641 153.979 22.1641 153.979Z" fill="#FA035C"/>
<path fill-rule="evenodd" clip-rule="evenodd" d="M30.1687 125.382C30.8657 125.278 31.3919 125.709 31.6423 126.316L31.6555 126.348C31.7359 126.555 31.8254 126.756 31.9217 126.953C33.6657 126.101 36.1541 126.32 37.2578 128.046C38.0454 129.278 37.5649 130.74 37.268 132.047L37.0731 132.908C37.4499 133.147 37.734 133.575 37.7206 134.017L37.719 134.051L37.6397 135.252C37.8913 134.998 38.1213 134.722 38.3264 134.427C38.4681 134.169 38.621 133.915 38.7853 133.669C39.7519 132.221 41.922 133.479 41.1242 135.03C40.9712 135.329 40.799 135.612 40.6143 135.885C40.4058 136.288 40.2347 136.702 40.1032 137.128C40.4806 137.291 40.7707 137.655 40.8013 138.203C40.8726 139.484 40.1973 140.553 39.123 141.224C38.8069 141.422 38.4805 141.46 38.1848 141.387C38.1326 141.457 38.0805 141.527 38.0307 141.598C38.459 141.944 38.8454 142.339 39.1774 142.777C40.1769 142.628 41.182 142.558 42.1871 142.556C43.4155 141.957 44.8863 141.969 46.2065 142.194C47.0563 142.338 47.8722 142.619 48.7085 142.821C49.5901 143.033 50.4853 143.041 51.3771 143.186C52.5012 143.367 53.4871 143.884 54.1069 144.709C54.7879 144.729 55.5041 145.007 56.0979 145.384C57.4803 146.262 58.8549 147.152 60.2339 148.036C60.7632 148.375 60.9611 148.917 60.8638 149.521L60.8572 149.559L60.8107 149.81L60.9198 149.964C61.3419 150.558 61.8011 151.179 62.0742 151.834C62.5796 152.56 63.0363 153.321 63.4408 154.105C63.9859 155.159 64.4357 156.276 64.7406 157.423C64.8165 157.713 64.8924 158.005 64.9423 158.301C65.0136 158.718 64.9037 159.042 64.8437 159.443C64.7689 159.951 64.7417 160.465 64.6624 160.974C64.6091 161.312 64.3213 161.478 64.0199 161.487C64.1332 162.345 64.2148 163.21 64.293 164.067C64.4029 165.293 64.4777 166.522 64.5422 167.751C64.8754 168.233 65.5564 168.614 66.0482 168.746C66.7293 168.928 67.4432 168.73 68.0868 168.499C68.4913 168.354 68.8234 168.86 68.6262 169.199C68.0063 170.262 66.6805 170.257 65.6766 169.787C65.2516 169.588 64.8788 169.3 64.6023 168.926C64.6193 169.282 64.6374 169.639 64.6556 169.997L64.6725 170.321C64.8766 174.105 65.3173 178.019 64.6034 181.766C63.3672 188.256 57.9741 193.198 51.3862 193.581C47.9291 193.783 45.0502 192.766 43.6187 192.199C42.1871 191.631 42.7435 190.475 43.7373 190.805C45.4493 191.375 48.5943 192.223 51.4088 191.857C58.0424 190.993 63.6674 187.691 63.0895 173.47C63.0076 171.453 62.7552 169.436 62.7008 167.419C62.6487 165.448 62.668 163.475 62.5807 161.505L62.5516 160.832C62.5176 160.047 62.4811 159.258 62.4221 158.471C62.3507 158.167 62.2918 157.857 62.2045 157.558C61.9677 156.745 61.6583 155.954 61.2742 155.199C61.1892 155.263 61.094 155.309 60.9909 155.327C60.2079 155.467 59.4736 155.428 58.7404 155.103C58.3982 154.953 58.0968 154.753 57.8158 154.506C57.6821 154.389 57.5925 154.277 57.5223 154.159C57.1676 154.165 56.8129 154.059 56.5908 153.805C56.3375 153.515 56.2954 153.217 56.3946 152.94L56.405 152.912L56.38 152.903C56.0809 153.674 55.4848 154.352 54.831 154.81C53.7976 155.537 52.5046 155.747 51.2649 155.766C49.8961 155.786 48.4524 155.577 47.1017 155.362C46.7447 155.306 46.39 155.241 46.0422 155.155C46.0286 155.168 46.015 155.184 46.0002 155.197C44.841 156.302 43.2104 156.587 41.7395 155.956C40.8896 155.591 40.1769 155.004 39.5468 154.332C39.5378 154.684 39.5196 155.036 39.489 155.385L39.4764 155.523C39.4136 156.173 39.2929 156.862 38.8001 157.33C38.0035 158.09 36.8476 157.785 35.9286 157.291C35.9298 157.314 35.9298 157.339 35.9298 157.364C36.1779 158.204 36.4272 159.044 36.6765 159.885L36.7302 160.064C36.9115 160.661 37.1103 161.259 37.1649 161.884C37.2692 163.078 36.4714 164.257 35.1388 163.856C34.4398 163.647 33.8798 163.062 33.3425 162.593L33.0039 162.301C33.8799 165.153 34.4872 168.106 34.5439 171.082C34.5473 171.244 34.4079 171.366 34.2538 171.371C33.8935 171.386 33.5059 171.315 33.1433 171.171C33.1229 171.17 33.1025 171.169 33.081 171.166C32.4623 171.077 31.8878 170.854 31.3812 170.526C31.4979 170.895 31.5501 171.291 31.5195 171.705C31.5115 171.806 31.354 171.841 31.3314 171.73C31.039 170.298 29.3563 169.216 27.9058 169.49C26.3488 169.784 25.2021 171.118 24.921 172.636C24.6196 174.267 25.1964 176.153 26.265 177.411C26.7568 177.991 27.4038 178.475 28.1721 178.597C28.5234 178.652 28.8883 178.633 29.2293 178.534C29.3744 178.491 29.5104 178.431 29.6486 178.375C29.8503 178.293 30.086 178.281 30.2764 178.195C30.7081 178.002 31.1421 178.398 30.9234 178.84C30.7331 179.224 30.5619 179.484 30.2458 179.683C30.5019 179.994 30.7342 180.427 30.8203 180.544C31.26 181.135 31.7064 181.694 32.2073 182.234C32.7172 182.783 33.2736 183.284 33.8617 183.748L34.1089 183.942C34.6754 184.389 35.1687 184.804 35.5683 185.446C35.8833 185.953 35.4754 186.64 34.885 186.632C33.0379 186.606 31.6951 184.99 30.7387 183.578C30.6027 183.376 30.4747 183.163 30.3557 182.944C30.3127 183.013 30.2651 183.077 30.2118 183.136L30.3172 183.418C30.6299 184.249 29.2826 184.791 28.8917 184.016C28.6072 183.454 28.2775 182.919 27.9103 182.414C27.6939 182.383 27.482 182.252 27.3641 182.083C27.0661 181.653 26.7318 181.219 26.4497 180.76C26.2933 180.613 26.1324 180.47 25.9681 180.332C25.9205 180.373 25.8718 180.415 25.8253 180.459C25.6191 180.927 25.3641 181.355 25.048 181.758L24.9802 181.844C24.3745 182.604 23.5856 183.382 22.6094 183.568C22.3114 183.624 22.0247 183.255 22.2887 183.02C22.972 182.408 23.7799 181.992 24.41 181.309C24.7204 180.972 25.0054 180.602 25.2505 180.214L25.3063 180.124C25.3471 180.057 25.389 179.991 25.4321 179.923C25.1477 179.73 24.8632 179.536 24.5788 179.342C23.7958 180.008 22.7762 180.313 21.9102 180.865L21.8241 180.921C21.0411 181.442 20.2161 180.289 20.8439 179.656C21.5359 178.96 22.1136 178.131 22.7267 177.358C22.4384 176.83 22.3019 176.204 22.2508 175.572C22.2307 175.393 22.2149 175.214 22.1992 175.035C21.7595 175.042 21.3176 174.892 20.9436 174.634L20.802 174.533C20.3476 174.678 19.8705 174.748 19.4138 174.735C18.3396 174.704 17.8999 173.481 18.5719 172.708C19.2575 171.918 20.4575 171.746 21.4082 172.13C21.4388 172.114 21.4705 172.097 21.5011 172.08C21.4558 171.872 21.4659 171.684 21.5175 171.518L21.5025 171.418C21.2934 171.098 21.156 170.733 21.1038 170.348C21.0626 170.043 21.071 169.74 21.1419 169.439C21.1655 169.338 21.2146 169.234 21.2521 169.13C21.1748 168.936 21.1293 168.735 21.1153 168.533C21.0937 168.507 21.0721 168.481 21.0517 168.452C20.58 167.793 20.6753 166.998 21.1242 166.464C21.1263 166.43 21.1295 166.396 21.1341 166.362C21.1078 166.303 21.0837 166.244 21.0617 166.184C20.623 165.743 20.301 165.213 20.3611 164.556C20.3963 164.169 20.5558 163.821 20.7973 163.561C20.7545 163.435 20.7504 163.289 20.8023 163.167C20.4169 162.146 20.4656 160.916 20.743 159.775C20.6819 159.601 20.6501 159.412 20.6569 159.213C20.6887 158.365 21.4252 157.586 22.2978 157.597C22.4028 157.598 22.5012 157.611 22.5957 157.631L22.5969 157.611C22.6303 157.357 22.7006 157.122 22.8031 156.911C22.7527 156.892 22.706 156.866 22.6651 156.832C22.106 157.129 21.5144 157.356 20.8941 157.511C20.438 157.624 19.9708 157.108 20.2543 156.682C20.3859 156.484 20.531 156.306 20.6874 156.144C20.4651 156.145 20.2394 156.16 20.011 156.189C19.6008 156.242 19.143 155.964 18.8767 155.587C18.5458 155.907 18.2138 156.227 17.8818 156.546C17.041 157.357 15.7707 156.76 15.6381 155.691C15.3877 155.624 15.1543 155.511 14.9492 155.35C13.6234 155.923 12.1967 156.238 10.7383 156.298C9.69126 156.341 9.07935 155.126 9.56888 154.269C9.8975 153.693 10.3054 153.176 10.7757 152.727C10.0459 152.949 9.29239 153.11 8.52297 153.212C8.10709 153.268 7.51898 152.925 7.35241 152.544C6.71556 151.082 6.76996 149.557 7.50312 148.134C7.53145 148.078 7.56317 148.024 7.59377 147.969C7.66969 147.781 7.75241 147.595 7.84193 147.412C6.93993 146.475 6.86174 145.083 7.34787 143.917C7.15297 143.602 7.07818 143.223 7.21076 142.88C7.5881 141.892 8.13202 140.98 8.81872 140.197C8.753 140.071 8.69521 139.937 8.64648 139.792C8.26007 138.624 8.70767 137.215 9.61081 136.401C10.1785 135.889 10.8312 135.582 11.5281 135.385C11.8216 134.869 12.199 134.402 12.6386 134.01C12.6556 133.972 12.6726 133.935 12.6919 133.898C13.3763 132.614 14.6228 131.925 15.9588 131.766C16.0109 131.264 16.3509 130.784 16.845 130.629C16.9809 130.194 17.1838 129.779 17.4625 129.402C17.9011 128.808 18.6297 128.529 19.3164 128.918C19.6926 129.131 20.0529 129.376 20.3906 129.647C20.5423 129.576 20.7143 129.53 20.9083 129.516L20.9572 129.513L22.0745 129.456C22.5425 129.25 23.0094 129.033 23.4774 128.822C23.7584 128.591 24.0723 128.398 24.4145 128.254C24.8021 128.093 25.1987 128.002 25.5964 127.971C25.9194 127.866 26.2446 127.774 26.5755 127.701C27.3528 127.532 28.1664 127.437 28.9732 127.445C28.9898 127.237 28.9979 127.027 28.9964 126.814L28.9948 126.707C28.9766 126.024 29.524 125.479 30.1687 125.382ZM29.3857 180.008C29.2747 180.031 29.1625 180.051 29.0503 180.064C29.0843 180.148 29.1183 180.231 29.1512 180.315C29.2418 180.365 29.3336 180.414 29.4254 180.459C29.3982 180.306 29.3823 180.151 29.3857 180.008ZM23.5639 178.285L23.4885 178.423C23.4763 178.445 23.4643 178.468 23.4525 178.49C23.6122 178.477 23.7732 178.481 23.9318 178.499L23.9313 178.482C23.911 178.475 23.8906 178.469 23.8711 178.459C23.7616 178.407 23.6598 178.348 23.5639 178.285ZM26.7103 171.982C27.7129 172.04 28.5622 172.193 29.474 172.63L29.5523 172.668C30.358 173.066 31.6906 173.802 31.5784 174.857C31.5467 175.157 31.328 175.473 30.9835 175.45C30.0396 175.385 29.5002 174.437 28.8611 173.846C28.2163 173.25 27.4242 172.637 26.6435 172.228C26.5331 172.17 26.5766 171.987 26.6967 171.982L26.7103 171.982ZM22.164 158.08C21.9238 158.087 22.0043 158.32 22.1278 158.126C22.138 158.11 22.1504 158.094 22.164 158.08ZM35.1315 142.56C32.8564 142.62 30.5666 143.958 28.8622 145.31C27.3794 146.486 26.0991 147.886 24.9653 149.394C24.6737 150.145 24.4232 150.912 24.2117 151.684C24.0723 152.194 23.985 152.71 23.8683 153.225L23.8321 153.383C23.7404 153.553 23.6723 153.737 23.6226 153.927C23.8292 154.133 24.0972 154.281 24.3923 154.351C24.4874 154.373 24.5663 154.422 24.6288 154.487C24.8663 154.092 25.0739 153.675 25.1947 153.234L25.1991 153.213C25.6557 152.469 26.1515 151.747 26.6831 151.05C28.1494 149.126 29.7642 147.372 31.7053 145.913C33.1773 144.807 34.8226 143.941 36.5723 143.377C36.144 143.033 35.6577 142.761 35.1315 142.56Z" fill="black"/>
<path fill-rule="evenodd" clip-rule="evenodd" d="M55.7212 184.405C54.8847 184.646 53.9868 184.668 53.1341 184.419C52.3607 184.193 51.5666 183.697 50.9974 183.04C50.4917 182.457 50.1642 181.747 50.1771 180.991C50.1786 180.904 50.2097 180.832 50.2575 180.776C50.309 180.716 50.3809 180.674 50.458 180.656C50.5373 180.638 50.6211 180.644 50.6924 180.677C50.757 180.706 50.8123 180.755 50.8469 180.828C50.9344 180.942 51.0216 181.054 51.109 181.164C51.8124 182.027 52.4936 182.672 53.5512 182.903C54.1251 183.029 54.6982 182.973 55.224 182.782C55.787 182.577 56.2958 182.216 56.6946 181.755C56.8748 181.546 57.0875 181.461 57.2956 181.46C57.5313 181.458 57.7643 181.567 57.9399 181.741C58.1124 181.912 58.228 182.144 58.2384 182.387C58.2476 182.601 58.1776 182.824 57.9912 183.023C57.3774 183.678 56.582 184.157 55.7212 184.405ZM55.6954 173.595C56.5529 174.113 57.8595 175.321 56.937 176.605C55.8512 177.737 54.2878 176.439 53.5174 175.852C52.803 175.397 52.0004 176.567 52.6632 177.099C58.2301 181.195 60.4893 173.731 56.1291 172.986C55.649 172.904 55.4707 173.435 55.6954 173.595ZM47.6739 171.316C47.3983 171.141 47.0741 171.081 46.7147 171.243C46.434 171.37 45.9415 171.793 45.5988 172.349C45.3643 172.729 45.198 173.176 45.2326 173.641C45.2407 173.749 45.2005 173.828 45.1372 173.887C45.0872 173.934 45.015 173.968 44.9301 173.978C44.8581 173.987 44.7775 173.979 44.7119 173.959C44.5872 173.92 44.5212 173.84 44.4963 173.774C44.2564 173.141 44.3598 172.434 44.6287 171.797C44.9917 170.936 45.6508 170.215 46.0826 169.983C46.8216 169.585 47.6934 169.567 48.4334 169.972C49.0634 170.317 49.4573 170.874 49.8491 171.441C49.9323 171.562 50.015 171.682 50.1004 171.8C50.2716 172.035 50.2887 172.269 50.2224 172.47C50.1489 172.692 49.9616 172.879 49.7275 172.978C49.511 173.068 49.2598 173.081 49.0375 172.988C48.8497 172.909 48.6773 172.756 48.5683 172.495C48.3846 172.057 48.0786 171.573 47.6739 171.316ZM61.6715 172.291C61.4827 172.389 61.335 172.419 61.1256 172.356C61.0099 172.322 60.8954 172.255 60.8058 172.166C60.717 172.078 60.653 171.968 60.6281 171.847C60.5668 171.546 60.4014 171.265 60.1657 171.082C59.9642 170.925 59.7099 170.842 59.4278 170.889C59.1234 170.939 58.8335 171.133 58.6337 171.362C58.567 171.438 58.5146 171.525 58.462 171.612C58.3636 171.773 58.268 171.923 58.1323 172.042C58.0808 172.087 58.0033 172.118 57.9282 172.118C57.8977 172.118 57.8667 172.113 57.8372 172.104C57.5342 171.802 57.476 171.573 57.4858 171.345C57.496 171.107 57.5906 170.865 57.7434 170.64C58.102 170.112 58.7828 169.679 59.2422 169.581C59.8714 169.446 60.4962 169.607 60.9972 169.957C61.5126 170.316 61.8946 170.874 62.0136 171.503C62.0423 171.654 62.0301 171.817 61.9721 171.959C61.9154 172.098 61.8166 172.216 61.6715 172.291ZM49.0615 165.683C48.6839 166.048 48.237 166.105 47.7849 166.155C47.5337 166.183 47.3332 166.206 47.1358 166.25C46.5935 166.372 46.0573 166.555 45.5682 166.819C45.0569 167.095 44.4997 167.428 44.0988 167.854C44.0035 167.956 43.9136 168.062 43.8237 168.169C43.7416 168.266 43.6626 168.36 43.5793 168.45C43.4836 168.554 43.3928 168.662 43.3024 168.771C43.2465 168.862 43.2355 168.885 43.2242 168.908C43.2073 168.943 43.1876 168.983 43.1651 169.025C43.1343 169.083 43.0982 169.146 43.0604 169.204C42.9975 169.308 42.9638 169.337 42.9346 169.35C42.8863 169.372 42.8404 169.382 42.7959 169.377C42.7541 169.371 42.7148 169.351 42.676 169.319C42.4821 169.156 42.425 168.889 42.4308 168.605C42.4397 168.175 42.5994 167.699 42.7466 167.406C43.0889 166.725 43.5636 166.018 44.1345 165.51C44.7858 164.93 45.4984 164.491 46.317 164.189C46.8256 164.001 47.4145 163.829 47.9687 163.85C48.3676 163.866 48.7484 163.984 49.0629 164.278C49.256 164.459 49.3487 164.716 49.3487 164.972C49.3487 165.234 49.2524 165.498 49.0615 165.683ZM62.4394 169.03C62.4153 169.069 62.3821 169.096 62.3451 169.113C62.3064 169.13 62.2631 169.134 62.2216 169.127C62.1802 169.121 62.1409 169.102 62.1097 169.073C62.0799 169.046 62.0571 169.01 62.0469 168.966C61.7962 167.871 61.3095 167.057 60.2706 166.532C59.7595 166.274 59.1719 166.11 58.6155 165.979C58.4539 165.941 58.2831 165.917 58.111 165.892C57.5719 165.813 57.0288 165.724 56.6774 165.291C56.4656 165.03 56.3767 164.696 56.427 164.391C56.4743 164.104 56.6432 163.84 56.9503 163.683C57.7148 163.29 58.6649 163.675 59.4369 164.004C59.4942 164.028 59.5504 164.052 59.6054 164.075C60.3604 164.392 61.049 164.81 61.615 165.408C62.0641 165.882 62.4803 166.583 62.6478 167.304C62.7873 167.904 62.7545 168.517 62.4394 169.03Z" fill="black"/>
</g>
</svg>
